<?xml version="1.0" encoding="UTF-8" standalone="no"?>
<!DOCTYPE svg PUBLIC "-//W3C//DTD SVG 1.1//EN"
 "http://www.w3.org/Graphics/SVG/1.1/DTD/svg11.dtd">
<!-- Generated by graphviz version 2.43.0 (0)
 -->
<!-- Title: Graphical Class Hierarchy Pages: 1 -->
<svg width="346pt" height="199pt"
 viewBox="0.00 0.00 346.00 198.50" xmlns="http://www.w3.org/2000/svg" xmlns:xlink="http://www.w3.org/1999/xlink">
<g id="graph0" class="graph" transform="scale(1 1) rotate(0) translate(4 194.5)">
<title>Graphical Class Hierarchy</title>
<!-- Node0 -->
<g id="Node000000" class="node">
<title>Node0</title>
<g id="a_Node000000"><a xlink:href="de/d40/interfaceweb_1_1ambassador_1_1view_1_1ViewContent.html" target="_top" xlink:title="Represents content that can be rendered as part of a web response.">
<polygon fill="white" stroke="#666666" points="137,-110.5 0,-110.5 0,-80.5 137,-80.5 137,-110.5"/>
<text text-anchor="start" x="8" y="-98.5" font-family="Helvetica,sans-Serif" font-size="10.00">web.ambassador.view.View</text>
<text text-anchor="middle" x="68.5" y="-87.5" font-family="Helvetica,sans-Serif" font-size="10.00">Content</text>
</a>
</g>
</g>
<!-- Node1 -->
<g id="Node000001" class="node">
<title>Node1</title>
<g id="a_Node000001"><a xlink:href="dc/d3a/classweb_1_1ambassador_1_1view_1_1AssetContent.html" target="_top" xlink:title="Represents the content of an asset that can be rendered as part of a web response.">
<polygon fill="white" stroke="#666666" points="325.5,-190.5 185.5,-190.5 185.5,-160.5 325.5,-160.5 325.5,-190.5"/>
<text text-anchor="start" x="193.5" y="-178.5" font-family="Helvetica,sans-Serif" font-size="10.00">web.ambassador.view.Asset</text>
<text text-anchor="middle" x="255.5" y="-167.5" font-family="Helvetica,sans-Serif" font-size="10.00">Content</text>
</a>
</g>
</g>
<!-- Node0&#45;&gt;Node1 -->
<g id="edge6_Node000000_Node000001" class="edge">
<title>Node0&#45;&gt;Node1</title>
<g id="a_edge6_Node000000_Node000001"><a xlink:title=" ">
<path fill="none" stroke="#63b8ff" d="M102.56,-115.7C122.46,-127.26 148.6,-141.44 173,-151.5 180.91,-154.76 189.42,-157.78 197.85,-160.49"/>
<polygon fill="#63b8ff" stroke="#63b8ff" points="104.27,-112.65 93.88,-110.59 100.72,-118.68 104.27,-112.65"/>
</a>
</g>
</g>
<!-- Node2 -->
<g id="Node000002" class="node">
<title>Node2</title>
<g id="a_Node000002"><a xlink:href="dc/d23/classweb_1_1ambassador_1_1view_1_1Dom.html" target="_top" xlink:title="Represents an HTML DOM (Document Object Model) element that can be dynamically constructed and render...">
<polygon fill="white" stroke="#666666" points="323.5,-142 187.5,-142 187.5,-123 323.5,-123 323.5,-142"/>
<text text-anchor="middle" x="255.5" y="-130" font-family="Helvetica,sans-Serif" font-size="10.00">web.ambassador.view.Dom</text>
</a>
</g>
</g>
<!-- Node0&#45;&gt;Node2 -->
<g id="edge7_Node000000_Node000002" class="edge">
<title>Node0&#45;&gt;Node2</title>
<g id="a_edge7_Node000000_Node000002"><a xlink:title=" ">
<path fill="none" stroke="#63b8ff" d="M146.94,-110.99C167.25,-115.05 188.55,-119.31 206.78,-122.96"/>
<polygon fill="#63b8ff" stroke="#63b8ff" points="147.57,-107.54 137.07,-109.01 146.19,-114.41 147.57,-107.54"/>
</a>
</g>
</g>
<!-- Node3 -->
<g id="Node000003" class="node">
<title>Node3</title>
<g id="a_Node000003"><a xlink:href="db/dd2/classweb_1_1ambassador_1_1view_1_1EmptyView.html" target="_top" xlink:title="Represents an empty view content, typically used as a placeholder for views that do not need to rende...">
<polygon fill="white" stroke="#666666" points="338,-105 173,-105 173,-86 338,-86 338,-105"/>
<text text-anchor="middle" x="255.5" y="-93" font-family="Helvetica,sans-Serif" font-size="10.00">web.ambassador.view.EmptyView</text>
</a>
</g>
</g>
<!-- Node0&#45;&gt;Node3 -->
<g id="edge8_Node000000_Node000003" class="edge">
<title>Node0&#45;&gt;Node3</title>
<g id="a_edge8_Node000000_Node000003"><a xlink:title=" ">
<path fill="none" stroke="#63b8ff" d="M147.31,-95.5C155.79,-95.5 164.44,-95.5 172.96,-95.5"/>
<polygon fill="#63b8ff" stroke="#63b8ff" points="147.07,-92 137.07,-95.5 147.07,-99 147.07,-92"/>
</a>
</g>
</g>
<!-- Node4 -->
<g id="Node000004" class="node">
<title>Node4</title>
<g id="a_Node000004"><a xlink:href="dc/d50/classweb_1_1ambassador_1_1view_1_1JsonContent.html" target="_top" xlink:title="Represents JSON content that can be rendered as part of an HTTP response.">
<polygon fill="white" stroke="#666666" points="323.5,-67.5 187.5,-67.5 187.5,-37.5 323.5,-37.5 323.5,-67.5"/>
<text text-anchor="start" x="195.5" y="-55.5" font-family="Helvetica,sans-Serif" font-size="10.00">web.ambassador.view.Json</text>
<text text-anchor="middle" x="255.5" y="-44.5" font-family="Helvetica,sans-Serif" font-size="10.00">Content</text>
</a>
</g>
</g>
<!-- Node0&#45;&gt;Node4 -->
<g id="edge9_Node000000_Node000004" class="edge">
<title>Node0&#45;&gt;Node4</title>
<g id="a_edge9_Node000000_Node000004"><a xlink:title=" ">
<path fill="none" stroke="#63b8ff" d="M144.05,-78.17C159.22,-74.65 175.05,-70.97 189.83,-67.53"/>
<polygon fill="#63b8ff" stroke="#63b8ff" points="143.15,-74.79 134.2,-80.46 144.74,-81.61 143.15,-74.79"/>
</a>
</g>
</g>
<!-- Node5 -->
<g id="Node000005" class="node">
<title>Node5</title>
<g id="a_Node000005"><a xlink:href="d3/ddd/classweb_1_1ambassador_1_1view_1_1PlainText.html" target="_top" xlink:title="Represents plain text content that can be rendered as part of an HTTP response.">
<polygon fill="white" stroke="#666666" points="333,-19 178,-19 178,0 333,0 333,-19"/>
<text text-anchor="middle" x="255.5" y="-7" font-family="Helvetica,sans-Serif" font-size="10.00">web.ambassador.view.PlainText</text>
</a>
</g>
</g>
<!-- Node0&#45;&gt;Node5 -->
<g id="edge10_Node000000_Node000005" class="edge">
<title>Node0&#45;&gt;Node5</title>
<g id="a_edge10_Node000000_Node000005"><a xlink:title=" ">
<path fill="none" stroke="#63b8ff" d="M96.63,-74.19C116.7,-59.39 145.25,-40.29 173,-28.5 181.96,-24.69 191.81,-21.58 201.48,-19.05"/>
<polygon fill="#63b8ff" stroke="#63b8ff" points="94.47,-71.43 88.58,-80.24 98.68,-77.03 94.47,-71.43"/>
</a>
</g>
</g>
</g>
</svg>
