<?xml version="1.0" encoding="UTF-8" standalone="no"?>
<!DOCTYPE svg PUBLIC "-//W3C//DTD SVG 1.1//EN"
 "http://www.w3.org/Graphics/SVG/1.1/DTD/svg11.dtd">
<!-- Generated by graphviz version 2.43.0 (0)
 -->
<!-- Title: Graphical Class Hierarchy Pages: 1 -->
<svg width="290pt" height="86pt"
 viewBox="0.00 0.00 290.00 86.00" xmlns="http://www.w3.org/2000/svg" xmlns:xlink="http://www.w3.org/1999/xlink">
<g id="graph0" class="graph" transform="scale(1 1) rotate(0) translate(4 82)">
<title>Graphical Class Hierarchy</title>
<!-- Node0 -->
<g id="Node000000" class="node">
<title>Node0</title>
<g id="a_Node000000"><a xlink:title=" ">
<polygon fill="#e0e0e0" stroke="#999999" points="97,-48.5 0,-48.5 0,-29.5 97,-29.5 97,-48.5"/>
<text text-anchor="middle" x="48.5" y="-36.5" font-family="Helvetica,sans-Serif" font-size="10.00">RuntimeException</text>
</a>
</g>
</g>
<!-- Node1 -->
<g id="Node000001" class="node">
<title>Node1</title>
<g id="a_Node000001"><a xlink:href="d7/d68/classweb_1_1ambassador_1_1db_1_1DatabaseException.html" target="_top" xlink:title="Custom exception class used for database&#45;related errors.">
<polygon fill="white" stroke="#666666" points="282,-78 133,-78 133,-48 282,-48 282,-78"/>
<text text-anchor="start" x="141" y="-66" font-family="Helvetica,sans-Serif" font-size="10.00">web.ambassador.db.Database</text>
<text text-anchor="middle" x="207.5" y="-55" font-family="Helvetica,sans-Serif" font-size="10.00">Exception</text>
</a>
</g>
</g>
<!-- Node0&#45;&gt;Node1 -->
<g id="edge3_Node000000_Node000001" class="edge">
<title>Node0&#45;&gt;Node1</title>
<g id="a_edge3_Node000000_Node000001"><a xlink:title=" ">
<path fill="none" stroke="#63b8ff" d="M107.04,-47.8C115.41,-49.08 124.12,-50.41 132.76,-51.73"/>
<polygon fill="#63b8ff" stroke="#63b8ff" points="107.45,-44.32 97.03,-46.27 106.39,-51.24 107.45,-44.32"/>
</a>
</g>
</g>
<!-- Node2 -->
<g id="Node000002" class="node">
<title>Node2</title>
<g id="a_Node000002"><a xlink:href="d3/db8/classweb_1_1ambassador_1_1util_1_1JsonParseException.html" target="_top" xlink:title="Exception thrown to indicate an error during JSON parsing.">
<polygon fill="white" stroke="#666666" points="272.5,-30 142.5,-30 142.5,0 272.5,0 272.5,-30"/>
<text text-anchor="start" x="150.5" y="-18" font-family="Helvetica,sans-Serif" font-size="10.00">web.ambassador.util.Json</text>
<text text-anchor="middle" x="207.5" y="-7" font-family="Helvetica,sans-Serif" font-size="10.00">ParseException</text>
</a>
</g>
</g>
<!-- Node0&#45;&gt;Node2 -->
<g id="edge4_Node000000_Node000002" class="edge">
<title>Node0&#45;&gt;Node2</title>
<g id="a_edge4_Node000000_Node000002"><a xlink:title=" ">
<path fill="none" stroke="#63b8ff" d="M106.95,-30.22C118.45,-28.46 130.61,-26.6 142.32,-24.81"/>
<polygon fill="#63b8ff" stroke="#63b8ff" points="106.39,-26.76 97.03,-31.73 107.45,-33.68 106.39,-26.76"/>
</a>
</g>
</g>
</g>
</svg>
